<?xml version="1.0" ?><svg baseProfile="tiny" id="Layer_1" overflow="scroll" version="1.1" viewBox="0 0 24 24" xml:space="preserve" xmlns="http://www.w3.org/2000/svg" xmlns:xlink="http://www.w3.org/1999/xlink"><path d="M2.5244141,23.5h18.9511719c0.4140625,0,0.75-0.3359375,0.75-0.75V4.9208984  c0-0.1992188-0.0795898-0.390625-0.2207031-0.53125L18.3198242,0.71875C18.1791992,0.5786133,17.9887695,0.5,17.7905273,0.5  H2.5244141c-0.4140625,0-0.75,0.3359375-0.75,0.75v21.5C1.7744141,23.1640625,2.1103516,23.5,2.5244141,23.5z M20.7128296,5.2197266  h-2.6986694V2.531189L20.7128296,5.2197266z M3.2744141,2h13.2397461v3.9697266c0,0.4140625,0.3359375,0.75,0.75,0.75h3.4614258V22  H3.2744141V2z" fill="#1D1D1D"/><path d="M10.3837891,7.7607422c-0.3144531-0.2709961-0.7875977-0.234375-1.0576172,0.0791016l-3.1586914,3.6708984  c-0.2421875,0.28125-0.2421875,0.6972656,0,0.9785156l3.1586914,3.6708984  c0.1479492,0.171875,0.3579102,0.2607422,0.5688477,0.2607422c0.1728516,0,0.347168-0.0595703,0.4887695-0.1816406  c0.3139648-0.2695313,0.3496094-0.7431641,0.0791016-1.0576172L7.7250977,12l2.737793-3.1816406  C10.7333984,8.5043945,10.6977539,8.0307617,10.3837891,7.7607422z" fill="#1D1D1D"/><path d="M14.6738281,7.8398438c-0.269043-0.3134766-0.7426758-0.3500977-1.0576172-0.0791016  c-0.3139648,0.2700195-0.3496094,0.7436523-0.0791016,1.0576172L16.2749023,12l-2.737793,3.1816406  c-0.2705078,0.3144531-0.2348633,0.7880859,0.0791016,1.0576172c0.1416016,0.1220703,0.315918,0.1816406,0.4887695,0.1816406  c0.2109375,0,0.4208984-0.0888672,0.5688477-0.2607422l3.1586914-3.6708984c0.2421875-0.28125,0.2421875-0.6972656,0-0.9785156  L14.6738281,7.8398438z" fill="#1D1D1D"/></svg>